# xmcd
#
# Track frame offsets:
#	183
#	15053
#	28893
#	41860
#	54360
#	68328
#	82495
#	96210
#	109588
#	120960
#	133105
#	146360
#	161095
#	174080
#	185125
#	198420
#	211400
#	225975
#	236853
#	249868
#	260490
#	273238
#
# Disc length: 3774 seconds
#
# Revision: 0
# Processed by: cddbd v1.5.2PL0 Copyright (c) Steve Scherf et al.
# Submitted via: audiograbber 1.83.01
#
DISCID=290ebc16
DTITLE=Muddy Waters - Hoochie Coochie Man
DYEAR=1992
DGENRE=Blues
TTITLE0=Baby Please Don't Go
TTITLE1=I Want You To Love Me
TTITLE2=I Just Want To Make Love To You
TTITLE3=I'm Your Hoochie Coochie Man
TTITLE4=I'm Ready
TTITLE5=Smokestack Lightnin'
TTITLE6=Young Fashioned Ways
TTITLE7=Manish Boy
TTITLE8=Sugar Sweet
TTITLE9=Trouble No More
TTITLE10=All Aboard
TTITLE11=Just To Be With You
TTITLE12=40 Days And 40 Nights
TTITLE13=Diamonds At Your Feet
TTITLE14=Don't Go No Further
TTITLE15=I Love The Life I Live, I Live The Life I Love
TTITLE16=Rock Me
TTITLE17=Look What You Done
TTITLE18=Got My Mojo Working
TTITLE19=Evil
TTITLE20=Good News
TTITLE21=Let Me Hang Around
EXTD=Muddy Waters, Volume 3\nRoots
EXTT0=
EXTT1=
EXTT2=
EXTT3=
EXTT4=
EXTT5=
EXTT6=
EXTT7=
EXTT8=
EXTT9=
EXTT10=
EXTT11=
EXTT12=
EXTT13=
EXTT14=
EXTT15=
EXTT16=
EXTT17=
EXTT18=
EXTT19=
EXTT20=
EXTT21=
PLAYORDER=
